<mxfile host="app.diagrams.net" modified="2024-04-15T18:38:04.036Z" agent="Mozilla/5.0 (X11; Ubuntu; Linux x86_64; rv:124.0) Gecko/20100101 Firefox/124.0" etag="Kw-hjfw_YOd7an8kOZtI" version="24.2.3" type="google">
  <diagram name="Page-1" id="EcZ9rpNOdI1zmr8UfgBa">
    <mxGraphModel grid="1" page="1" gridSize="10" guides="1" tooltips="1" connect="1" arrows="1" fold="1" pageScale="1" pageWidth="850" pageHeight="1100" math="1" shadow="0">
      <root>
        <mxCell id="0" />
        <mxCell id="1" parent="0" />
        <mxCell id="uLYCmcK8HzqsmymAAzrh-9" value="" style="endArrow=classic;html=1;rounded=0;strokeWidth=3;fontSize=16;" edge="1" parent="1">
          <mxGeometry width="50" height="50" relative="1" as="geometry">
            <mxPoint x="579.37" y="680" as="sourcePoint" />
            <mxPoint x="579.37" y="650" as="targetPoint" />
          </mxGeometry>
        </mxCell>
        <mxCell id="uLYCmcK8HzqsmymAAzrh-10" value="" style="endArrow=classic;html=1;rounded=0;entryX=0.5;entryY=1;entryDx=0;entryDy=0;strokeWidth=3;fontSize=16;" edge="1" parent="1" target="uLYCmcK8HzqsmymAAzrh-20">
          <mxGeometry width="50" height="50" relative="1" as="geometry">
            <mxPoint x="599.37" y="680" as="sourcePoint" />
            <mxPoint x="599.37" y="650" as="targetPoint" />
          </mxGeometry>
        </mxCell>
        <mxCell id="uLYCmcK8HzqsmymAAzrh-11" value="" style="endArrow=classic;html=1;rounded=0;entryX=0.5;entryY=1;entryDx=0;entryDy=0;strokeWidth=3;fontSize=16;" edge="1" parent="1" target="uLYCmcK8HzqsmymAAzrh-66">
          <mxGeometry width="50" height="50" relative="1" as="geometry">
            <mxPoint x="619.37" y="680" as="sourcePoint" />
            <mxPoint x="619.37" y="650" as="targetPoint" />
          </mxGeometry>
        </mxCell>
        <mxCell id="uLYCmcK8HzqsmymAAzrh-12" value="" style="endArrow=classic;html=1;rounded=0;entryX=0.5;entryY=1;entryDx=0;entryDy=0;strokeWidth=3;fontSize=16;" edge="1" parent="1" target="uLYCmcK8HzqsmymAAzrh-67">
          <mxGeometry width="50" height="50" relative="1" as="geometry">
            <mxPoint x="639.37" y="680" as="sourcePoint" />
            <mxPoint x="639.37" y="650" as="targetPoint" />
          </mxGeometry>
        </mxCell>
        <mxCell id="uLYCmcK8HzqsmymAAzrh-49" style="edgeStyle=orthogonalEdgeStyle;rounded=0;orthogonalLoop=1;jettySize=auto;html=1;exitX=1;exitY=0.5;exitDx=0;exitDy=0;entryX=0;entryY=0.5;entryDx=0;entryDy=0;strokeWidth=3;fontSize=16;" edge="1" parent="1" source="uLYCmcK8HzqsmymAAzrh-13" target="uLYCmcK8HzqsmymAAzrh-35">
          <mxGeometry relative="1" as="geometry" />
        </mxCell>
        <mxCell id="uLYCmcK8HzqsmymAAzrh-15" style="edgeStyle=orthogonalEdgeStyle;rounded=0;orthogonalLoop=1;jettySize=auto;html=1;exitX=0;exitY=0.5;exitDx=0;exitDy=0;entryX=1.006;entryY=0.379;entryDx=0;entryDy=0;entryPerimeter=0;strokeWidth=3;fontSize=16;" edge="1" parent="1" source="uLYCmcK8HzqsmymAAzrh-13">
          <mxGeometry relative="1" as="geometry">
            <mxPoint x="560.09" y="640.3199999999999" as="targetPoint" />
          </mxGeometry>
        </mxCell>
        <mxCell id="uLYCmcK8HzqsmymAAzrh-13" value="&lt;font style=&quot;font-size: 20px;&quot;&gt;S&lt;/font&gt;" style="rounded=0;whiteSpace=wrap;html=1;strokeWidth=3;fontSize=20;spacingTop=0;" vertex="1" parent="1">
          <mxGeometry x="569.37" y="630" width="20" height="20" as="geometry" />
        </mxCell>
        <mxCell id="uLYCmcK8HzqsmymAAzrh-72" style="edgeStyle=orthogonalEdgeStyle;rounded=0;orthogonalLoop=1;jettySize=auto;html=1;exitX=0;exitY=0.5;exitDx=0;exitDy=0;entryX=1;entryY=0.5;entryDx=0;entryDy=0;strokeWidth=3;fontSize=16;" edge="1" parent="1" source="uLYCmcK8HzqsmymAAzrh-20" target="uLYCmcK8HzqsmymAAzrh-23">
          <mxGeometry relative="1" as="geometry" />
        </mxCell>
        <mxCell id="uLYCmcK8HzqsmymAAzrh-73" style="edgeStyle=orthogonalEdgeStyle;rounded=0;orthogonalLoop=1;jettySize=auto;html=1;exitX=1;exitY=0.5;exitDx=0;exitDy=0;entryX=0;entryY=0.5;entryDx=0;entryDy=0;strokeWidth=3;fontSize=16;" edge="1" parent="1" source="uLYCmcK8HzqsmymAAzrh-20" target="uLYCmcK8HzqsmymAAzrh-39">
          <mxGeometry relative="1" as="geometry" />
        </mxCell>
        <mxCell id="uLYCmcK8HzqsmymAAzrh-20" value="&lt;font style=&quot;font-size: 20px;&quot;&gt;S&lt;/font&gt;" style="rounded=0;whiteSpace=wrap;html=1;strokeWidth=3;fontSize=20;spacingTop=0;" vertex="1" parent="1">
          <mxGeometry x="590" y="510" width="20" height="20" as="geometry" />
        </mxCell>
        <mxCell id="uLYCmcK8HzqsmymAAzrh-70" style="edgeStyle=orthogonalEdgeStyle;rounded=0;orthogonalLoop=1;jettySize=auto;html=1;exitX=1;exitY=0.5;exitDx=0;exitDy=0;entryX=0;entryY=0.5;entryDx=0;entryDy=0;strokeWidth=3;fontSize=16;" edge="1" parent="1" source="uLYCmcK8HzqsmymAAzrh-66" target="uLYCmcK8HzqsmymAAzrh-43">
          <mxGeometry relative="1" as="geometry" />
        </mxCell>
        <mxCell id="uLYCmcK8HzqsmymAAzrh-71" style="edgeStyle=orthogonalEdgeStyle;rounded=0;orthogonalLoop=1;jettySize=auto;html=1;exitX=0;exitY=0.5;exitDx=0;exitDy=0;entryX=1;entryY=0.5;entryDx=0;entryDy=0;strokeWidth=3;fontSize=16;" edge="1" parent="1" source="uLYCmcK8HzqsmymAAzrh-66" target="uLYCmcK8HzqsmymAAzrh-27">
          <mxGeometry relative="1" as="geometry" />
        </mxCell>
        <mxCell id="uLYCmcK8HzqsmymAAzrh-66" value="&lt;font style=&quot;font-size: 20px;&quot;&gt;S&lt;/font&gt;" style="rounded=0;whiteSpace=wrap;html=1;strokeWidth=3;fontSize=20;spacingTop=0;" vertex="1" parent="1">
          <mxGeometry x="610" y="390" width="20" height="20" as="geometry" />
        </mxCell>
        <mxCell id="uLYCmcK8HzqsmymAAzrh-68" style="edgeStyle=orthogonalEdgeStyle;rounded=0;orthogonalLoop=1;jettySize=auto;html=1;exitX=0;exitY=0.5;exitDx=0;exitDy=0;entryX=1;entryY=0.5;entryDx=0;entryDy=0;strokeWidth=3;fontSize=16;" edge="1" parent="1" source="uLYCmcK8HzqsmymAAzrh-67" target="uLYCmcK8HzqsmymAAzrh-31">
          <mxGeometry relative="1" as="geometry" />
        </mxCell>
        <mxCell id="uLYCmcK8HzqsmymAAzrh-69" style="edgeStyle=orthogonalEdgeStyle;rounded=0;orthogonalLoop=1;jettySize=auto;html=1;exitX=1;exitY=0.5;exitDx=0;exitDy=0;entryX=0;entryY=0.5;entryDx=0;entryDy=0;strokeWidth=3;fontSize=16;" edge="1" parent="1" source="uLYCmcK8HzqsmymAAzrh-67" target="uLYCmcK8HzqsmymAAzrh-47">
          <mxGeometry relative="1" as="geometry" />
        </mxCell>
        <mxCell id="uLYCmcK8HzqsmymAAzrh-67" value="&lt;p style=&quot;line-height: 10%; font-size: 20px;&quot;&gt;&lt;font style=&quot;font-size: 20px;&quot;&gt;S&lt;/font&gt;&lt;/p&gt;" style="rounded=0;whiteSpace=wrap;html=1;strokeWidth=3;fontSize=20;spacing=0;spacingTop=0;" vertex="1" parent="1">
          <mxGeometry x="630" y="270" width="20" height="20" as="geometry" />
        </mxCell>
        <mxCell id="uLYCmcK8HzqsmymAAzrh-78" value="" style="group;strokeWidth=3;fontSize=16;" connectable="0" vertex="1" parent="1">
          <mxGeometry x="480" y="140" width="50" height="60" as="geometry" />
        </mxCell>
        <mxCell id="uLYCmcK8HzqsmymAAzrh-76" value="DRO" style="rounded=0;whiteSpace=wrap;html=1;strokeWidth=3;fontSize=16;" vertex="1" parent="uLYCmcK8HzqsmymAAzrh-78">
          <mxGeometry width="40" height="60" as="geometry" />
        </mxCell>
        <mxCell id="uLYCmcK8HzqsmymAAzrh-77" value="" style="triangle;whiteSpace=wrap;html=1;rotation=-90;strokeWidth=3;fontSize=16;" vertex="1" parent="uLYCmcK8HzqsmymAAzrh-78">
          <mxGeometry x="13.129999999999995" y="42.879999999999995" width="13.75" height="20" as="geometry" />
        </mxCell>
        <mxCell id="uLYCmcK8HzqsmymAAzrh-79" value="" style="endArrow=classic;html=1;rounded=0;strokeWidth=3;fontSize=16;" edge="1" parent="1">
          <mxGeometry width="50" height="50" relative="1" as="geometry">
            <mxPoint x="440" y="170" as="sourcePoint" />
            <mxPoint x="480" y="170" as="targetPoint" />
          </mxGeometry>
        </mxCell>
        <mxCell id="uLYCmcK8HzqsmymAAzrh-80" value="T" style="text;html=1;align=center;verticalAlign=middle;whiteSpace=wrap;rounded=0;strokeWidth=3;fontSize=18;" vertex="1" parent="1">
          <mxGeometry x="425" y="140" width="60" height="30" as="geometry" />
        </mxCell>
        <mxCell id="uLYCmcK8HzqsmymAAzrh-81" value="" style="group;strokeWidth=3;fontSize=16;" connectable="0" vertex="1" parent="1">
          <mxGeometry x="700" y="140" width="50" height="60" as="geometry" />
        </mxCell>
        <mxCell id="uLYCmcK8HzqsmymAAzrh-82" value="DRO" style="rounded=0;whiteSpace=wrap;html=1;strokeWidth=3;fontSize=16;" vertex="1" parent="uLYCmcK8HzqsmymAAzrh-81">
          <mxGeometry width="40" height="60" as="geometry" />
        </mxCell>
        <mxCell id="uLYCmcK8HzqsmymAAzrh-83" value="" style="triangle;whiteSpace=wrap;html=1;rotation=-90;strokeWidth=3;fontSize=16;" vertex="1" parent="uLYCmcK8HzqsmymAAzrh-81">
          <mxGeometry x="13.129999999999995" y="42.879999999999995" width="13.75" height="20" as="geometry" />
        </mxCell>
        <mxCell id="uLYCmcK8HzqsmymAAzrh-84" value="" style="endArrow=classic;html=1;rounded=0;strokeWidth=3;fontSize=16;" edge="1" parent="1">
          <mxGeometry width="50" height="50" relative="1" as="geometry">
            <mxPoint x="780" y="168.71" as="sourcePoint" />
            <mxPoint x="740" y="168.71" as="targetPoint" />
          </mxGeometry>
        </mxCell>
        <mxCell id="uLYCmcK8HzqsmymAAzrh-85" value="Â¬T" style="text;html=1;align=center;verticalAlign=middle;whiteSpace=wrap;rounded=0;strokeWidth=3;fontSize=18;" vertex="1" parent="1">
          <mxGeometry x="730" y="140" width="60" height="30" as="geometry" />
        </mxCell>
        <mxCell id="uLYCmcK8HzqsmymAAzrh-94" style="edgeStyle=orthogonalEdgeStyle;rounded=0;orthogonalLoop=1;jettySize=auto;html=1;exitX=0.5;exitY=0;exitDx=0;exitDy=0;strokeWidth=3;fontSize=16;" edge="1" parent="1" source="uLYCmcK8HzqsmymAAzrh-86">
          <mxGeometry relative="1" as="geometry">
            <mxPoint x="610" y="80" as="targetPoint" />
          </mxGeometry>
        </mxCell>
        <mxCell id="uLYCmcK8HzqsmymAAzrh-86" value="M" style="whiteSpace=wrap;html=1;aspect=fixed;strokeWidth=3;fontSize=20;spacingTop=0;" vertex="1" parent="1">
          <mxGeometry x="600" y="120" width="20" height="20" as="geometry" />
        </mxCell>
        <mxCell id="uLYCmcK8HzqsmymAAzrh-92" style="edgeStyle=orthogonalEdgeStyle;rounded=0;orthogonalLoop=1;jettySize=auto;html=1;exitX=0.5;exitY=0;exitDx=0;exitDy=0;entryX=1;entryY=0.5;entryDx=0;entryDy=0;strokeWidth=3;fontSize=16;" edge="1" parent="1" source="uLYCmcK8HzqsmymAAzrh-82" target="uLYCmcK8HzqsmymAAzrh-86">
          <mxGeometry relative="1" as="geometry">
            <Array as="points">
              <mxPoint x="720" y="130" />
            </Array>
          </mxGeometry>
        </mxCell>
        <mxCell id="uLYCmcK8HzqsmymAAzrh-93" style="edgeStyle=orthogonalEdgeStyle;rounded=0;orthogonalLoop=1;jettySize=auto;html=1;exitX=0.5;exitY=0;exitDx=0;exitDy=0;entryX=0;entryY=0.5;entryDx=0;entryDy=0;strokeWidth=3;fontSize=16;" edge="1" parent="1" source="uLYCmcK8HzqsmymAAzrh-76" target="uLYCmcK8HzqsmymAAzrh-86">
          <mxGeometry relative="1" as="geometry">
            <Array as="points">
              <mxPoint x="500" y="130" />
            </Array>
          </mxGeometry>
        </mxCell>
        <mxCell id="uLYCmcK8HzqsmymAAzrh-96" style="edgeStyle=orthogonalEdgeStyle;rounded=0;orthogonalLoop=1;jettySize=auto;html=1;exitX=0;exitY=0.5;exitDx=0;exitDy=0;entryX=0.5;entryY=1;entryDx=0;entryDy=0;strokeWidth=3;fontSize=16;" edge="1" parent="1" source="uLYCmcK8HzqsmymAAzrh-95" target="uLYCmcK8HzqsmymAAzrh-1">
          <mxGeometry relative="1" as="geometry" />
        </mxCell>
        <mxCell id="uLYCmcK8HzqsmymAAzrh-97" style="edgeStyle=orthogonalEdgeStyle;rounded=0;orthogonalLoop=1;jettySize=auto;html=1;exitX=1;exitY=0.5;exitDx=0;exitDy=0;entryX=0.5;entryY=1;entryDx=0;entryDy=0;strokeWidth=3;fontSize=16;" edge="1" parent="1" source="uLYCmcK8HzqsmymAAzrh-95" target="uLYCmcK8HzqsmymAAzrh-35">
          <mxGeometry relative="1" as="geometry" />
        </mxCell>
        <mxCell id="uLYCmcK8HzqsmymAAzrh-95" value="&lt;font style=&quot;font-size: 20px;&quot;&gt;S&lt;/font&gt;" style="rounded=0;whiteSpace=wrap;html=1;strokeWidth=3;fontSize=20;spacingTop=0;" vertex="1" parent="1">
          <mxGeometry x="600" y="710" width="20" height="20" as="geometry" />
        </mxCell>
        <mxCell id="uLYCmcK8HzqsmymAAzrh-98" value="" style="endArrow=classic;html=1;rounded=0;strokeWidth=3;fontSize=16;" edge="1" parent="1">
          <mxGeometry width="50" height="50" relative="1" as="geometry">
            <mxPoint x="609.43" y="760" as="sourcePoint" />
            <mxPoint x="609.43" y="730" as="targetPoint" />
          </mxGeometry>
        </mxCell>
        <mxCell id="uLYCmcK8HzqsmymAAzrh-30" style="edgeStyle=orthogonalEdgeStyle;rounded=0;orthogonalLoop=1;jettySize=auto;html=1;exitX=0.5;exitY=0;exitDx=0;exitDy=0;strokeWidth=3;fontSize=16;" edge="1" parent="1" source="uLYCmcK8HzqsmymAAzrh-31">
          <mxGeometry relative="1" as="geometry">
            <mxPoint x="500" y="200" as="targetPoint" />
          </mxGeometry>
        </mxCell>
        <mxCell id="uLYCmcK8HzqsmymAAzrh-31" value="D = 1" style="rounded=0;whiteSpace=wrap;html=1;strokeWidth=3;fontSize=26;" vertex="1" parent="1">
          <mxGeometry x="440" y="240" width="120" height="80" as="geometry" />
        </mxCell>
        <mxCell id="uLYCmcK8HzqsmymAAzrh-32" value="" style="triangle;whiteSpace=wrap;html=1;rotation=-90;strokeWidth=3;fontSize=16;" vertex="1" parent="1">
          <mxGeometry x="493.13" y="302.88" width="13.75" height="20" as="geometry" />
        </mxCell>
        <mxCell id="uLYCmcK8HzqsmymAAzrh-26" style="edgeStyle=orthogonalEdgeStyle;rounded=0;orthogonalLoop=1;jettySize=auto;html=1;exitX=0.5;exitY=0;exitDx=0;exitDy=0;strokeWidth=3;fontSize=16;" edge="1" parent="1" source="uLYCmcK8HzqsmymAAzrh-27">
          <mxGeometry relative="1" as="geometry">
            <mxPoint x="500" y="320" as="targetPoint" />
          </mxGeometry>
        </mxCell>
        <mxCell id="uLYCmcK8HzqsmymAAzrh-27" value="D = 3" style="rounded=0;whiteSpace=wrap;html=1;strokeWidth=3;fontSize=26;" vertex="1" parent="1">
          <mxGeometry x="440" y="360" width="120" height="80" as="geometry" />
        </mxCell>
        <mxCell id="uLYCmcK8HzqsmymAAzrh-28" value="" style="triangle;whiteSpace=wrap;html=1;rotation=-90;strokeWidth=3;fontSize=16;" vertex="1" parent="1">
          <mxGeometry x="493.13" y="422.88" width="13.75" height="20" as="geometry" />
        </mxCell>
        <mxCell id="uLYCmcK8HzqsmymAAzrh-22" style="edgeStyle=orthogonalEdgeStyle;rounded=0;orthogonalLoop=1;jettySize=auto;html=1;exitX=0.5;exitY=0;exitDx=0;exitDy=0;strokeWidth=3;fontSize=16;" edge="1" parent="1" source="uLYCmcK8HzqsmymAAzrh-23">
          <mxGeometry relative="1" as="geometry">
            <mxPoint x="500" y="440" as="targetPoint" />
          </mxGeometry>
        </mxCell>
        <mxCell id="uLYCmcK8HzqsmymAAzrh-23" value="D = 1" style="rounded=0;whiteSpace=wrap;html=1;strokeWidth=3;fontSize=26;" vertex="1" parent="1">
          <mxGeometry x="440" y="480" width="120" height="80" as="geometry" />
        </mxCell>
        <mxCell id="uLYCmcK8HzqsmymAAzrh-24" value="" style="triangle;whiteSpace=wrap;html=1;rotation=-90;strokeWidth=3;fontSize=16;" vertex="1" parent="1">
          <mxGeometry x="493.13" y="542.88" width="13.75" height="20" as="geometry" />
        </mxCell>
        <mxCell id="uLYCmcK8HzqsmymAAzrh-2" style="edgeStyle=orthogonalEdgeStyle;rounded=0;orthogonalLoop=1;jettySize=auto;html=1;exitX=0.5;exitY=0;exitDx=0;exitDy=0;strokeWidth=3;fontSize=16;" edge="1" parent="1" source="uLYCmcK8HzqsmymAAzrh-1">
          <mxGeometry relative="1" as="geometry">
            <mxPoint x="500" y="560" as="targetPoint" />
          </mxGeometry>
        </mxCell>
        <mxCell id="uLYCmcK8HzqsmymAAzrh-1" value="D = 2" style="rounded=0;whiteSpace=wrap;html=1;strokeWidth=3;fontSize=26;" vertex="1" parent="1">
          <mxGeometry x="440" y="600" width="120" height="80" as="geometry" />
        </mxCell>
        <mxCell id="uLYCmcK8HzqsmymAAzrh-3" value="" style="triangle;whiteSpace=wrap;html=1;rotation=-90;strokeWidth=3;fontSize=16;" vertex="1" parent="1">
          <mxGeometry x="493.13" y="662.88" width="13.75" height="20" as="geometry" />
        </mxCell>
        <mxCell id="uLYCmcK8HzqsmymAAzrh-46" style="edgeStyle=orthogonalEdgeStyle;rounded=0;orthogonalLoop=1;jettySize=auto;html=1;exitX=0.5;exitY=0;exitDx=0;exitDy=0;strokeWidth=3;fontSize=16;" edge="1" parent="1" source="uLYCmcK8HzqsmymAAzrh-47">
          <mxGeometry relative="1" as="geometry">
            <mxPoint x="720" y="200" as="targetPoint" />
          </mxGeometry>
        </mxCell>
        <mxCell id="uLYCmcK8HzqsmymAAzrh-47" value="D = 1" style="rounded=0;whiteSpace=wrap;html=1;strokeWidth=3;fontSize=26;" vertex="1" parent="1">
          <mxGeometry x="660" y="240" width="120" height="80" as="geometry" />
        </mxCell>
        <mxCell id="uLYCmcK8HzqsmymAAzrh-48" value="" style="triangle;whiteSpace=wrap;html=1;rotation=-90;strokeWidth=3;fontSize=16;" vertex="1" parent="1">
          <mxGeometry x="713.13" y="302.88" width="13.75" height="20" as="geometry" />
        </mxCell>
        <mxCell id="uLYCmcK8HzqsmymAAzrh-42" style="edgeStyle=orthogonalEdgeStyle;rounded=0;orthogonalLoop=1;jettySize=auto;html=1;exitX=0.5;exitY=0;exitDx=0;exitDy=0;strokeWidth=3;fontSize=16;" edge="1" parent="1" source="uLYCmcK8HzqsmymAAzrh-43">
          <mxGeometry relative="1" as="geometry">
            <mxPoint x="720" y="320" as="targetPoint" />
          </mxGeometry>
        </mxCell>
        <mxCell id="uLYCmcK8HzqsmymAAzrh-43" value="D = 3" style="rounded=0;whiteSpace=wrap;html=1;strokeWidth=3;fontSize=26;" vertex="1" parent="1">
          <mxGeometry x="660" y="360" width="120" height="80" as="geometry" />
        </mxCell>
        <mxCell id="uLYCmcK8HzqsmymAAzrh-44" value="" style="triangle;whiteSpace=wrap;html=1;rotation=-90;strokeWidth=3;fontSize=16;" vertex="1" parent="1">
          <mxGeometry x="713.13" y="422.88" width="13.75" height="20" as="geometry" />
        </mxCell>
        <mxCell id="uLYCmcK8HzqsmymAAzrh-38" style="edgeStyle=orthogonalEdgeStyle;rounded=0;orthogonalLoop=1;jettySize=auto;html=1;exitX=0.5;exitY=0;exitDx=0;exitDy=0;strokeWidth=3;fontSize=16;" edge="1" parent="1" source="uLYCmcK8HzqsmymAAzrh-39">
          <mxGeometry relative="1" as="geometry">
            <mxPoint x="720" y="440" as="targetPoint" />
          </mxGeometry>
        </mxCell>
        <mxCell id="uLYCmcK8HzqsmymAAzrh-39" value="D = 0" style="rounded=0;whiteSpace=wrap;html=1;strokeWidth=3;fontSize=26;" vertex="1" parent="1">
          <mxGeometry x="660" y="480" width="120" height="80" as="geometry" />
        </mxCell>
        <mxCell id="uLYCmcK8HzqsmymAAzrh-40" value="" style="triangle;whiteSpace=wrap;html=1;rotation=-90;strokeWidth=3;fontSize=16;" vertex="1" parent="1">
          <mxGeometry x="713.13" y="542.88" width="13.75" height="20" as="geometry" />
        </mxCell>
        <mxCell id="uLYCmcK8HzqsmymAAzrh-34" style="edgeStyle=orthogonalEdgeStyle;rounded=0;orthogonalLoop=1;jettySize=auto;html=1;exitX=0.5;exitY=0;exitDx=0;exitDy=0;strokeWidth=3;fontSize=16;" edge="1" parent="1" source="uLYCmcK8HzqsmymAAzrh-35">
          <mxGeometry relative="1" as="geometry">
            <mxPoint x="720" y="560" as="targetPoint" />
          </mxGeometry>
        </mxCell>
        <mxCell id="uLYCmcK8HzqsmymAAzrh-35" value="D = 1" style="rounded=0;whiteSpace=wrap;html=1;strokeWidth=3;fontSize=26;" vertex="1" parent="1">
          <mxGeometry x="660" y="600" width="120" height="80" as="geometry" />
        </mxCell>
        <mxCell id="uLYCmcK8HzqsmymAAzrh-36" value="" style="triangle;whiteSpace=wrap;html=1;rotation=-90;strokeWidth=3;fontSize=16;" vertex="1" parent="1">
          <mxGeometry x="713.13" y="662.88" width="13.75" height="20" as="geometry" />
        </mxCell>
        <mxCell id="uLYCmcK8HzqsmymAAzrh-99" value="&lt;font style=&quot;font-size: 18px;&quot;&gt;S&lt;sub style=&quot;font-size: 18px;&quot;&gt;0&lt;/sub&gt;&lt;/font&gt;" style="text;html=1;align=center;verticalAlign=middle;whiteSpace=wrap;rounded=0;fontSize=18;spacingLeft=1;spacingRight=1;" vertex="1" parent="1">
          <mxGeometry x="570.94" y="680" width="16.87" height="30" as="geometry" />
        </mxCell>
        <mxCell id="uLYCmcK8HzqsmymAAzrh-100" value="S&lt;sub style=&quot;font-size: 18px;&quot;&gt;1&lt;/sub&gt;" style="text;html=1;align=center;verticalAlign=middle;whiteSpace=wrap;rounded=0;fontSize=18;spacingLeft=1;spacingRight=1;" vertex="1" parent="1">
          <mxGeometry x="591.57" y="680" width="16.87" height="30" as="geometry" />
        </mxCell>
        <mxCell id="uLYCmcK8HzqsmymAAzrh-101" value="&lt;font style=&quot;font-size: 18px;&quot;&gt;S&lt;sub style=&quot;font-size: 18px;&quot;&gt;2&lt;/sub&gt;&lt;/font&gt;" style="text;html=1;align=center;verticalAlign=middle;whiteSpace=wrap;rounded=0;fontSize=18;spacingLeft=1;spacingRight=1;" vertex="1" parent="1">
          <mxGeometry x="611.57" y="680" width="16.87" height="30" as="geometry" />
        </mxCell>
        <mxCell id="uLYCmcK8HzqsmymAAzrh-102" value="&lt;font style=&quot;font-size: 18px;&quot;&gt;S&lt;sub style=&quot;font-size: 18px;&quot;&gt;3&lt;/sub&gt;&lt;/font&gt;" style="text;html=1;align=center;verticalAlign=middle;whiteSpace=wrap;rounded=0;fontSize=18;spacingLeft=1;spacingRight=1;" vertex="1" parent="1">
          <mxGeometry x="633.1300000000001" y="680" width="16.87" height="30" as="geometry" />
        </mxCell>
        <mxCell id="uLYCmcK8HzqsmymAAzrh-105" value="&lt;font style=&quot;font-size: 18px;&quot;&gt;Clk_Start&lt;br&gt;&lt;/font&gt;" style="text;html=1;align=center;verticalAlign=middle;whiteSpace=wrap;rounded=0;" vertex="1" parent="1">
          <mxGeometry x="527.81" y="730" width="60" height="30" as="geometry" />
        </mxCell>
        <mxCell id="uLYCmcK8HzqsmymAAzrh-106" value="&lt;font style=&quot;font-size: 18px;&quot;&gt;Temporal_priority&lt;/font&gt;" style="text;html=1;align=center;verticalAlign=middle;whiteSpace=wrap;rounded=0;" vertex="1" parent="1">
          <mxGeometry x="660" y="87" width="60" height="30" as="geometry" />
        </mxCell>
      </root>
    </mxGraphModel>
  </diagram>
</mxfile>
